<svg xmlns="http://www.w3.org/2000/svg" width="36" height="29" viewBox="0 0 36 29">
  <g id="LOGO" transform="translate(-34 -21.014)">
    <path id="PARASSET_LOGO" d="M0,11.729l2.577,2.324V29.014L0,26.69Zm2.577.526s-.54-5.59,4.35-8.4a8.948,8.948,0,0,1,9.7.378l1.838-1.852a11.66,11.66,0,0,0-12.446-1A11.586,11.586,0,0,0,.1,10Zm1.118,7.822a11.482,11.482,0,0,0,6.425,3.013A11.585,11.585,0,0,0,18.557,20.7l-1.836-1.844a8.5,8.5,0,0,1-6.555,1.6c-4.261-.509-6.472-4.483-6.472-4.483ZM17.5,4.947a9.661,9.661,0,0,1,2.9,6.631,9.466,9.466,0,0,1-2.813,6.551l1.817,1.831a11.3,11.3,0,0,0,3.572-8.382,11.489,11.489,0,0,0-3.655-8.462ZM36,11.729l-2.577,2.324V29.013L36,26.69ZM35.9,10A11.441,11.441,0,0,0,19.071,1.41L21.15,3.265a8.967,8.967,0,0,1,7.924.591c4.889,2.809,4.35,8.4,4.35,8.4Zm-3.592,5.965s-2.211,3.974-6.472,4.483a9.637,9.637,0,0,1-4.686-.53,19.061,19.061,0,0,1-2.081,1.852A12.1,12.1,0,0,0,25.88,23.09a11.482,11.482,0,0,0,6.425-3.013ZM15.422,4.483a11.714,11.714,0,0,0,0,14.206c.909-.8,1.115-.972,1.994-1.717A9.243,9.243,0,0,1,15.6,11.577a9.282,9.282,0,0,1,1.816-5.371C16.527,5.447,16.138,5.133,15.422,4.483Z" transform="translate(34 21)"/>
  </g>
</svg>
