<svg xmlns="http://www.w3.org/2000/svg" width="28" height="28" viewBox="0 0 28 28">
  <defs>
    <style>
      .cls-1 {
        fill: #fff;
      }
    </style>
  </defs>
  <g id="audit_icon" transform="translate(-3 -3)">
    <path id="路径_1" data-name="路径 1" d="M17,31A14,14,0,1,0,3,17,14,14,0,0,0,17,31Z" transform="translate(0 0)"/>
    <path id="audit_icon-2" data-name="audit_icon" class="cls-1" d="M18.244,5.991a.794.794,0,0,0-.145-.381.836.836,0,0,0-.319-.266L11.013,2.086a.875.875,0,0,0-.757,0L3.489,5.343a.839.839,0,0,0-.318.267.8.8,0,0,0-.145.381c-.009.087-.813,8.768,7.265,12.226a.865.865,0,0,0,.687,0C19.057,14.758,18.253,6.079,18.244,5.991ZM10.635,16.574V10.144H5.145a12.156,12.156,0,0,1-.46-3.554l5.95-2.864v6.418H16.1A9.866,9.866,0,0,1,10.635,16.574Z" transform="translate(6.365 6.856)"/>
  </g>
</svg>
