<svg xmlns="http://www.w3.org/2000/svg" width="28" height="28" viewBox="0 0 28 28">
  <defs>
    <style>
      .cls-1 {
        fill: #fff;
      }
    </style>
  </defs>
  <g id="docs_icon" transform="translate(-3 -3)">
    <path id="路径_1" data-name="路径 1" d="M17,31A14,14,0,1,0,3,17,14,14,0,0,0,17,31Z" transform="translate(0 0)"/>
    <g id="组_2" data-name="组 2" transform="translate(-117 -54.4)">
      <path id="路径_10" data-name="路径 10" class="cls-1" d="M640,64l4,4.114h-4Z" transform="translate(-504)"/>
      <path id="路径_11" data-name="路径 11" class="cls-1" d="M266,75.315a1.014,1.014,0,0,1-1,1.029h-9V65.029A1.014,1.014,0,0,1,257,64h4v5.143h5Z" transform="translate(-126)"/>
      <path id="路径_12" data-name="路径 12" class="cls-1" d="M138,203.315a1.014,1.014,0,0,1-1,1.029h-8a1.014,1.014,0,0,1-1-1.029V193.029A1.014,1.014,0,0,1,129,192v11.315Z" transform="translate(0 -125.943)"/>
    </g>
  </g>
</svg>
