<svg xmlns="http://www.w3.org/2000/svg" width="28" height="28" viewBox="0 0 28 28">
  <defs>
    <style>
      .cls-1 {
        fill: #fff;
      }
    </style>
  </defs>
  <g id="github_icon" transform="translate(-3 -3)">
    <path id="路径_1" data-name="路径 1" d="M17,31A14,14,0,1,0,3,17,14,14,0,0,0,17,31Z"/>
    <path id="Vector" class="cls-1" d="M7.949,0A7.95,7.95,0,0,0,5.436,15.493c.4.073.543-.172.543-.383,0-.189-.007-.816-.011-1.48-2.212.481-2.678-.938-2.678-.938a2.106,2.106,0,0,0-.883-1.163c-.721-.494.054-.483.054-.483a1.671,1.671,0,0,1,1.218.819,1.693,1.693,0,0,0,2.314.661,1.692,1.692,0,0,1,.5-1.063c-1.766-.2-3.622-.883-3.622-3.929A3.076,3.076,0,0,1,3.7,5.4a2.855,2.855,0,0,1,.077-2.1s.668-.213,2.187.815a7.533,7.533,0,0,1,3.981,0c1.517-1.029,2.184-.815,2.184-.815A2.854,2.854,0,0,1,12.2,5.4a3.071,3.071,0,0,1,.818,2.134c0,3.053-1.86,3.725-3.63,3.922a1.9,1.9,0,0,1,.539,1.472c0,1.064-.009,1.92-.009,2.182,0,.211.143.459.546.382A7.95,7.95,0,0,0,7.949,0Z" transform="translate(9 8.92)"/>
  </g>
</svg>
