<svg xmlns="http://www.w3.org/2000/svg" xmlns:xlink="http://www.w3.org/1999/xlink" width="28" height="28" viewBox="0 0 28 28">
  <defs>
    <style>
      .cls-1 {
        fill: url(#linear-gradient);
      }

      .cls-2 {
        fill: #fff;
      }
    </style>
    <linearGradient id="linear-gradient" x2="1" y2="1" gradientUnits="objectBoundingBox">
      <stop offset="0" stop-color="#5a88bb"/>
      <stop offset="1" stop-color="#7fc9ca"/>
    </linearGradient>
  </defs>
  <g id="medium_icon" transform="translate(-3 -3)">
    <path id="路径_1" data-name="路径 1" class="cls-1" d="M17,31A14,14,0,1,0,3,17,14,14,0,0,0,17,31Z" transform="translate(0 0)"/>
    <path id="Vector_1_" data-name="Vector (1)" class="cls-2" d="M11.833,6.2A5.715,5.715,0,1,1,6.119.446,5.734,5.734,0,0,1,11.833,6.2Zm6.269,0c0,2.991-1.279,5.417-2.857,5.417S12.387,9.191,12.387,6.2,13.666.783,15.244.783,18.1,3.208,18.1,6.2Zm2.564,0c0,2.679-.45,4.852-1,4.852s-1-2.173-1-4.852.45-4.852,1-4.852S20.666,3.52,20.666,6.2Z" transform="translate(6.096 10.429)"/>
  </g>
</svg>
