<svg xmlns="http://www.w3.org/2000/svg" xmlns:xlink="http://www.w3.org/1999/xlink" width="28" height="28" viewBox="0 0 28 28">
  <defs>
    <style>
      .cls-1 {
        fill: url(#linear-gradient);
      }

      .cls-2 {
        fill: #fff;
      }
    </style>
    <linearGradient id="linear-gradient" x2="1" y2="1" gradientUnits="objectBoundingBox">
      <stop offset="0" stop-color="#5a88bb"/>
      <stop offset="1" stop-color="#7fc9ca"/>
    </linearGradient>
  </defs>
  <g id="twitter_icon" transform="translate(-3 -3)">
    <path id="路径_1" data-name="路径 1" class="cls-1" d="M17,31A14,14,0,1,0,3,17,14,14,0,0,0,17,31Z"/>
    <path id="twitter" class="cls-2" d="M135.14,185.13a10.519,10.519,0,0,0,4.665,1.208s-.81-2.836,1.694-4.095a3.479,3.479,0,0,1,4.227.863s.438-.12.762-.24.8-.335.8-.335l-.772,1.385,1.189-.126a4.648,4.648,0,0,1-.623.652,9.253,9.253,0,0,0-.671.665,11.082,11.082,0,0,1-1.62,6.043,9.678,9.678,0,0,1-7.463,4.539,9.426,9.426,0,0,1-5.549-1.035,9.894,9.894,0,0,0,2.405-.444,13.918,13.918,0,0,0,2.283-1.307,8.8,8.8,0,0,1-2.6-1.258,3.915,3.915,0,0,1-.859-1.06l1.89-.025a9.587,9.587,0,0,1-2.552-1.9,3.914,3.914,0,0,1-.638-1.652l1.454.589a8.326,8.326,0,0,1-1.38-2.933,3.334,3.334,0,0,1,.221-1.974S132.611,183.847,135.14,185.13Z" transform="translate(-122.7 -171.833)"/>
  </g>
</svg>
