<svg xmlns="http://www.w3.org/2000/svg" xmlns:xlink="http://www.w3.org/1999/xlink" width="28" height="28" viewBox="0 0 28 28">
  <defs>
    <style>
      .cls-1 {
        fill: url(#linear-gradient);
      }

      .cls-2 {
        fill: #fff;
      }
    </style>
    <linearGradient id="linear-gradient" x2="1" y2="1" gradientUnits="objectBoundingBox">
      <stop offset="0" stop-color="#5a88bb"/>
      <stop offset="1" stop-color="#7fc9ca"/>
    </linearGradient>
  </defs>
  <g id="whitepaper_icon" transform="translate(-3 -3)">
    <path id="路径_1" data-name="路径 1" class="cls-1" d="M17,31A14,14,0,1,0,3,17,14,14,0,0,0,17,31Z" transform="translate(0 0)"/>
    <g id="组_1" data-name="组 1" transform="translate(-41.119 -28.995)">
      <path id="路径_8" data-name="路径 8" class="cls-2" d="M862.346,208.2H861.6s0,0,0,0V217.7c0,.033,0,.065.006.1s.009.065.015.1a.877.877,0,0,0,.024.095.856.856,0,0,0,.033.092c.012.03.027.059.041.089a.771.771,0,0,0,.05.083c.018.027.038.053.059.08a.78.78,0,0,0,.139.139.8.8,0,0,0,.08.059c.027.018.056.036.083.05s.059.03.089.041.062.024.092.033.062.018.095.024.065.012.1.015.065.006.1.006.065,0,.1-.006.065-.009.1-.015a.883.883,0,0,0,.095-.024.825.825,0,0,0,.092-.033c.03-.012.059-.027.089-.041a.767.767,0,0,0,.083-.05c.027-.018.053-.038.08-.059a.775.775,0,0,0,.139-.139.794.794,0,0,0,.059-.08c.018-.027.036-.056.05-.083s.03-.059.041-.089.024-.062.033-.092.018-.062.024-.095.012-.065.015-.1.006-.065.006-.1v-8.242c0-.041,0-.083-.006-.121a.858.858,0,0,0-.018-.121c-.009-.041-.018-.08-.03-.118s-.027-.077-.041-.116a.988.988,0,0,0-.053-.113l-.062-.107a.846.846,0,0,0-.074-.1c-.027-.03-.053-.062-.083-.092a1.2,1.2,0,0,0-.092-.083c-.033-.027-.065-.05-.1-.074a.626.626,0,0,0-.107-.062c-.036-.021-.074-.036-.112-.053s-.077-.03-.116-.041-.08-.021-.118-.03a.862.862,0,0,0-.121-.018C862.426,208.2,862.388,208.2,862.346,208.2Z" transform="translate(-798.202 -166.3)"/>
      <path id="路径_9" data-name="路径 9" class="cls-2" d="M59.9,42.9H57.913a.508.508,0,0,1-.512-.477v-.05a.292.292,0,0,1,.006-.05c0-.018.006-.033.009-.05a.222.222,0,0,1,.015-.047.33.33,0,0,1,.021-.047c.009-.015.015-.03.024-.044a.36.36,0,0,1,.03-.041.444.444,0,0,1,.033-.039l.036-.036a.21.21,0,0,1,.041-.03c.015-.009.03-.018.041-.027l.044-.024a.311.311,0,0,1,.047-.018.251.251,0,0,1,.05-.012l.05-.009a.287.287,0,0,1,.05,0h1.984a.508.508,0,0,1,.512.477v.05a.292.292,0,0,1-.006.05c0,.018-.006.033-.009.05a.222.222,0,0,1-.015.047.329.329,0,0,1-.021.047c-.009.015-.015.03-.024.044a.36.36,0,0,1-.03.041.375.375,0,0,1-.033.039l-.036.036a.21.21,0,0,1-.041.03c-.015.009-.03.018-.041.027l-.044.024-.047.018a.251.251,0,0,1-.05.012l-.05.009C59.933,42.9,59.915,42.9,59.9,42.9Zm0,2H57.913a.508.508,0,0,1-.512-.477v-.05a.292.292,0,0,1,.006-.05c0-.018.006-.033.009-.05a.222.222,0,0,1,.015-.047.33.33,0,0,1,.021-.047c.009-.015.015-.03.024-.044a.36.36,0,0,1,.03-.041.445.445,0,0,1,.033-.039l.036-.036a.211.211,0,0,1,.041-.03c.015-.009.03-.018.041-.027l.044-.024.047-.018a.251.251,0,0,1,.05-.012l.05-.009a.287.287,0,0,1,.05,0h1.984a.508.508,0,0,1,.512.477v.05a.292.292,0,0,1-.006.05c0,.018-.006.033-.009.05a.222.222,0,0,1-.015.047.329.329,0,0,1-.021.047c-.009.015-.015.03-.024.044a.361.361,0,0,1-.03.041.376.376,0,0,1-.033.039l-.036.036a.211.211,0,0,1-.041.03c-.015.009-.03.018-.041.027l-.044.024a.307.307,0,0,1-.047.018.25.25,0,0,1-.05.012l-.05.009C59.933,44.9,59.915,44.9,59.9,44.9Zm0,2H53.914a.508.508,0,0,1-.512-.477v-.05a.291.291,0,0,1,.006-.05l.009-.05a.222.222,0,0,1,.015-.047.328.328,0,0,1,.021-.047c.009-.015.015-.03.024-.044a.358.358,0,0,1,.03-.041.374.374,0,0,1,.033-.039l.036-.036a.21.21,0,0,1,.041-.03c.015-.009.03-.018.041-.027l.044-.024a.308.308,0,0,1,.047-.018.252.252,0,0,1,.05-.012l.05-.009a.288.288,0,0,1,.05,0h5.983a.508.508,0,0,1,.512.477v.05a.292.292,0,0,1-.006.05c0,.018-.006.033-.009.05a.222.222,0,0,1-.015.047.329.329,0,0,1-.021.047c-.009.015-.015.03-.024.044a.36.36,0,0,1-.03.041.375.375,0,0,1-.033.038l-.036.036a.211.211,0,0,1-.041.03c-.015.009-.03.018-.041.027l-.044.024-.047.018a.251.251,0,0,1-.05.012l-.05.009C59.933,46.9,59.915,46.9,59.9,46.9Zm0,2H53.914a.508.508,0,0,1-.512-.477v-.05a.291.291,0,0,1,.006-.05l.009-.05a.222.222,0,0,1,.015-.047.328.328,0,0,1,.021-.047c.009-.015.015-.03.024-.044a.359.359,0,0,1,.03-.041.373.373,0,0,1,.033-.038l.036-.036a.21.21,0,0,1,.041-.03c.015-.009.03-.018.041-.027l.044-.024.047-.018a.252.252,0,0,1,.05-.012l.05-.009a.287.287,0,0,1,.05,0h5.983a.508.508,0,0,1,.512.477v.05a.292.292,0,0,1-.006.05c0,.018-.006.033-.009.05a.222.222,0,0,1-.015.047.329.329,0,0,1-.021.047c-.009.015-.015.03-.024.044a.359.359,0,0,1-.03.041.375.375,0,0,1-.033.039l-.036.036a.21.21,0,0,1-.041.03c-.015.009-.03.018-.041.027l-.044.024-.047.018a.25.25,0,0,1-.05.012l-.05.009C59.933,48.9,59.915,48.9,59.9,48.9Zm0,2H53.914a.508.508,0,0,1-.512-.477v-.05a.291.291,0,0,1,.006-.05l.009-.05a.222.222,0,0,1,.015-.047.329.329,0,0,1,.021-.047c.009-.015.015-.03.024-.044a.359.359,0,0,1,.03-.041.373.373,0,0,1,.033-.038l.036-.036a.21.21,0,0,1,.041-.03c.015-.009.03-.018.041-.027l.044-.024.047-.018a.251.251,0,0,1,.05-.012l.05-.009a.288.288,0,0,1,.05,0h5.983a.508.508,0,0,1,.512.477v.05a.292.292,0,0,1-.006.05l-.009.05a.222.222,0,0,1-.015.047.329.329,0,0,1-.021.047c-.009.015-.015.03-.024.044a.359.359,0,0,1-.03.041.375.375,0,0,1-.033.039l-.036.036a.211.211,0,0,1-.041.03c-.015.009-.03.018-.041.027l-.044.024-.047.018a.25.25,0,0,1-.05.012l-.05.009C59.933,50.894,59.915,50.9,59.9,50.9Zm-6.5-8.5a.288.288,0,0,1,0-.05c0-.015,0-.033.006-.047a.277.277,0,0,1,.012-.047.493.493,0,0,1,.018-.047.3.3,0,0,1,.021-.044.2.2,0,0,1,.027-.041.19.19,0,0,1,.03-.038c.012-.012.021-.024.033-.036a.356.356,0,0,1,.036-.033.337.337,0,0,1,.039-.03l.041-.027a.3.3,0,0,1,.044-.021l.047-.018a.278.278,0,0,1,.047-.012.259.259,0,0,1,.047-.006.288.288,0,0,1,.05,0h2a.287.287,0,0,1,.05,0c.018,0,.033,0,.047.006a.278.278,0,0,1,.047.012.5.5,0,0,1,.047.018.3.3,0,0,1,.044.021.2.2,0,0,1,.041.027.191.191,0,0,1,.039.03l.036.033a.354.354,0,0,1,.033.036.335.335,0,0,1,.03.038c.009.012.018.027.027.041a.3.3,0,0,1,.021.044c.006.015.012.03.018.047a.277.277,0,0,1,.012.047.259.259,0,0,1,.006.047c0,.015,0,.033,0,.05v2a.287.287,0,0,1,0,.05c0,.018,0,.033-.006.047a.277.277,0,0,1-.012.047.492.492,0,0,1-.018.047c-.009.018-.012.03-.021.044a.2.2,0,0,1-.027.041.19.19,0,0,1-.03.039c-.012.012-.021.024-.033.036a.357.357,0,0,1-.036.033.336.336,0,0,1-.039.03c-.012.009-.027.018-.041.027a.3.3,0,0,1-.044.021l-.047.018a.278.278,0,0,1-.047.012.259.259,0,0,1-.047.006c-.015,0-.033,0-.05,0h-2a.287.287,0,0,1-.05,0c-.018,0-.033,0-.047-.006a.278.278,0,0,1-.047-.012.5.5,0,0,1-.047-.018.3.3,0,0,1-.044-.021.2.2,0,0,1-.041-.027.19.19,0,0,1-.039-.03l-.036-.033a.356.356,0,0,1-.033-.036.334.334,0,0,1-.03-.039l-.027-.041a.3.3,0,0,1-.021-.044c-.006-.015-.012-.03-.018-.047a.37.37,0,0,1-.012-.047.259.259,0,0,1-.006-.047c0-.015,0-.033,0-.05ZM62.4,51.395V40.65c0-.041,0-.083-.006-.121a.856.856,0,0,0-.018-.121c-.009-.041-.018-.08-.03-.118s-.027-.077-.041-.116a.749.749,0,0,0-.053-.11l-.062-.107a1.351,1.351,0,0,0-.249-.272c-.033-.027-.065-.05-.1-.074a.628.628,0,0,0-.107-.062l-.11-.053c-.038-.015-.077-.03-.116-.041s-.08-.021-.118-.03a.857.857,0,0,0-.121-.018c-.041,0-.083-.006-.121-.006h-8.5c-.041,0-.083,0-.121.006a.857.857,0,0,0-.121.018c-.041.009-.08.018-.118.03s-.077.027-.116.041a.748.748,0,0,0-.11.053l-.107.062a1.208,1.208,0,0,0-.1.074,1.221,1.221,0,0,0-.175.175c-.027.033-.05.065-.074.1a.628.628,0,0,0-.062.107c-.021.036-.036.074-.053.11s-.03.077-.041.116-.021.08-.03.118a.859.859,0,0,0-.018.121c0,.041-.006.083-.006.121V51.644a1.635,1.635,0,0,0,.036.341,1.508,1.508,0,0,0,.041.166,1.524,1.524,0,0,0,.059.163,1.471,1.471,0,0,0,.074.154,1.507,1.507,0,0,0,.089.148,1.773,1.773,0,0,0,.347.382,1.7,1.7,0,0,0,.139.1,1.506,1.506,0,0,0,.148.089c.05.027.1.05.154.074s.107.041.163.059a1.7,1.7,0,0,0,.166.041,1.634,1.634,0,0,0,.341.036h10.71a.027.027,0,0,0,.015,0s.009,0,.012-.009a.041.041,0,0,0,.009-.012.022.022,0,0,0,0-.015.027.027,0,0,0-.009-.021c-.006-.006-.012-.012-.018-.012a1.336,1.336,0,0,1-.154-.05,1.621,1.621,0,0,1-.151-.062c-.05-.024-.1-.047-.145-.074s-.095-.056-.139-.086a1.36,1.36,0,0,1-.13-.1q-.062-.049-.124-.107c-.038-.038-.077-.077-.113-.116s-.071-.083-.1-.124-.065-.089-.095-.133-.056-.092-.083-.139a1.359,1.359,0,0,1-.071-.148c-.021-.05-.041-.1-.059-.151s-.033-.1-.047-.157-.024-.107-.033-.16-.015-.107-.021-.163A1.042,1.042,0,0,1,62.4,51.395Z" transform="translate(0 0)"/>
    </g>
  </g>
</svg>
